<?xml version="1.0" encoding="UTF-8"?><svg id="Capa_2" xmlns="http://www.w3.org/2000/svg" viewBox="0 0 254.09 191.51"><defs><style>.cls-1{fill:#020202;}.cls-1,.cls-2,.cls-3,.cls-4,.cls-5,.cls-6{stroke-width:0px;}.cls-2{fill:#010101;}.cls-3{fill:#81c039;}.cls-4{fill:#fff;}.cls-5{fill:#3c8f34;}.cls-6{fill:#020101;}</style></defs><g id="Capa_1-2"><path class="cls-3" d="m140.54,13.34c-1.51-3.9-3.7-8.6-8.11-9.84-.91-.26-1.9-.18-2.79-.52-1.03-.39-1.61-1.24-2.48-1.85-1.86-1.32-3.98-1.28-6.15-.87-8.76,1.67-13.98,10.54-16.86,18.23-.69,1.85-.9,4.95-2.04,6.51-.91,1.25-4.13,1.63-5.55,2.07-1.8.57-4.58.87-6.06,2.1-1.25,1.05-1.16,2.92-1.36,4.41-2.62,19.79-5.65,39.64-7.62,59.5,9.77,2.17,19.71,3.73,29.55,5.59,9.84,1.87,19.67,3.79,29.53,5.51.51-15.54,1.41-31.06,2.16-46.59.38-7.8.74-15.61,1.13-23.41.19-3.85.37-7.7.56-11.54.06-1.11-.07-9.41.76-10.2.03-.03.07-.05.11-.06-1.33-.6-3.5.56-4.78.95Zm-13.07-5.82c.62,1.95,2.49,7.87.93,9.53-.83.88-3.68,1.2-4.85,1.57-1.58.49-3.32,1.29-4.97,1.46,1.02-5.28,4.88-11.25,8.89-12.56Zm-14.7,2.49c1.39-1.87,3.06-3.55,5.07-4.75,1.71-1.02,5.32-2.57,7.16-1.1-.84,1.08-2.74,1.85-3.77,2.86-1.26,1.22-2.31,2.65-3.2,4.16-.93,1.59-1.67,3.28-2.27,5.02-.59,1.72-.77,3.73-1.51,5.36-2.61.8-5.26,1.61-8.08,2.48,1.57-4.94,3.47-9.84,6.59-14.03Zm12.96,39.01c-3.48-1.38-8.48-3-12.01-.84-4.01,2.45-1.79,6.1.93,8.32,3.28,2.68,6.99,4.97,9.09,8.78,2.01,3.64,2.14,8.12,1.12,12.09-2.04,7.91-8.86,11.86-16.75,11.07-4.02-.4-7.79-2.02-10.93-4.54-1.36-1.1-1.74-1.36-1.36-3.06.55-2.5,1.36-5.19,2.32-7.56,2.71,1.99,5.7,4.27,9.19,4.46,3.4.19,5.54-2.51,4.47-5.8-1.04-3.18-4.69-5.1-6.98-7.33-2.45-2.38-3.96-5.25-4.18-8.69-1-15.84,15.66-23.46,29.06-18.69-1.34,3.99-2.65,7.86-3.97,11.8Zm6.51-33.07c.05-3.15-.2-6.16-1.18-9.16,3.64.48,5.01,4.67,6.25,7.53-1.66.7-3.31,1.08-5.07,1.63Z"/><path class="cls-4" d="m114.65,56.5c3.28,2.68,6.99,4.97,9.09,8.78,2.01,3.64,2.14,8.12,1.12,12.09-2.04,7.91-8.86,11.86-16.75,11.07-4.02-.4-7.79-2.02-10.93-4.54-1.36-1.1-1.74-1.36-1.36-3.06.55-2.5,1.36-5.19,2.32-7.56,2.71,1.99,5.7,4.27,9.19,4.46,3.4.19,5.54-2.51,4.47-5.8-1.04-3.18-4.69-5.1-6.98-7.33-2.45-2.38-3.96-5.25-4.18-8.69-1-15.84,15.66-23.46,29.06-18.69-1.34,3.99-2.65,7.86-3.97,11.8-3.48-1.38-8.48-3-12.01-.84-4.01,2.45-1.79,6.1.93,8.32Z"/><path class="cls-5" d="m140.6,104.19c.51-15.54,1.41-31.06,2.16-46.59.38-7.8.75-15.61,1.13-23.41.19-3.85.37-7.7.56-11.54.06-1.15-.09-10.09.86-10.26,2.55,1.73,4.45,5.67,7.42,6.5,1.93.54,4.45.24,6.46.46,1.8.19,1.98.5,2.26,2.26,1.36,8.47,2.51,16.97,3.75,25.46,1.23,8.46,2.48,16.92,3.72,25.38.64,4.32,1.27,8.64,1.92,12.96.57,3.84,1.68,8,1.68,11.89-5.31,1.25-10.67,2.34-16,3.5-2.68.58-5.35,1.16-8.03,1.74-2.52.55-5.32,1.56-7.9,1.65Z"/><path class="cls-2" d="m115.47,189.28c1.91-10.15,3.82-20.31,5.73-30.46.95-5.05,1.96-10.09,2.85-15.16.85-4.84,1.24-9.8,2.24-14.61h10.59c-.22,2.12-.44,4.19-.66,6.26.04.02.08.04.13.07,4.41-5.11,11.07-9.26,17.94-6,7.04,3.34,7.74,12.28,6.82,19.09-2.01,14.92-14.36,28.85-30.33,22.97-1.14,5.91-2.2,11.86-3.34,17.84h-11.97Zm33.48-44.42c-.28-2.55-.52-5.4-3.33-6.36-2.79-.96-5.46.93-7.13,3.02-3.82,4.78-4.21,11.39-5.24,17.19-.23,1.27-.98,2.91,0,3.91.76.78,2.42,1.13,3.44,1.25,2.69.3,4.98-1.06,6.72-3.01,3.8-4.24,5.31-10.44,5.55-15.99Z"/><path class="cls-2" d="m32.94,172.14c3.89-20.59,7.77-41.14,11.66-61.73h12.04c-1.53,8.08-3.05,16.1-4.57,24.13.06.04.11.07.17.11,3.44-3.74,7.69-6.52,12.98-6.33,5.13.18,8.54,3.38,9.4,8.38.99,5.73-1.05,12.18-2.08,17.81-1.08,5.86-2.08,11.76-3.34,17.59h-12c1.17-6.61,2.48-13.2,3.72-19.81.67-3.59,4.08-14.78-2.89-14.1-5.83.57-8.2,8.8-9.14,13.46-1.37,6.81-2.67,13.65-3.9,20.49h-12.05Z"/><path class="cls-1" d="m230.56,158.63c3.48-9.87,7.25-19.61,11.04-29.36h12.49c-2.19,6.52-5.87,12.85-8.77,19.09-2.84,6.1-5.58,12.27-8.68,18.25-2.82,5.44-6.06,10.75-10.08,15.39-2.04,2.36-4.32,4.46-6.95,6.15-1.78,1.15-5.52,3.73-7.75,3.31-1.08-3.34-2.18-6.71-3.29-10.13,4.01-1.7,7.74-3.6,10.67-6.93,1.28-1.46,2.91-3.35,2.9-5.39,0-2.68-.99-5.66-1.48-8.29-1.92-10.45-4.25-20.91-5.76-31.42h12.67c1,9.77,2,19.55,3,29.33Z"/><path class="cls-2" d="m118.31,145.74c-.14,8.85-3.75,18.14-11.21,23.35-6.98,4.89-18.03,5.86-24.47-.48-6.57-6.47-5.5-17.68-2.07-25.43,3.64-8.22,11.07-14.4,20.27-14.86,10.42-.52,17.77,7.08,17.47,17.42Zm-12.33,0c.43-4.69-2.78-9.94-7.99-7.62-5.18,2.3-7.16,10.22-7.6,15.27-.25,2.88-.37,6.47,1.79,8.73,1.81,1.9,4.76,2.05,6.92.68,5.15-3.24,6.61-11.52,6.89-17.06Z"/><path class="cls-1" d="m196.36,172.12h-12.07c1.98-11.29,4.21-22.54,6.34-33.8h-5.61c.6-3.11,1.18-6.11,1.76-9.13h5.58c1.19-6.09,2.83-12.25,8-16.22,4.6-3.54,12.28-4.86,17.67-2.44-.77,3.11-1.53,6.22-2.31,9.39-2.69-.53-5.36-1.03-7.67.84-2.56,2.08-3.08,5.37-3.74,8.4h8.36c-.56,3.1-1.09,6.1-1.64,9.15h-8.29c-2.12,11.28-4.24,22.51-6.36,33.79Z"/><path class="cls-6" d="m2.96,161.4c3.29,1.57,16.85,5.72,15.05-2.45-.61-2.78-3.88-4.17-6.02-5.56-2.87-1.87-5.53-4.44-6.45-7.84-1.65-6.06,2.1-12.1,7.36-14.88,3.13-1.66,6.58-2.24,10.1-2.28,3.19-.04,7.4.1,10.11,2.01-.92,2.83-1.85,5.66-2.74,8.41-3.41-.89-7.92-2.69-11.26-.63-3,1.85-1.88,4.95.46,6.66,5.29,3.88,11.49,6.92,10.83,14.55-1.23,14.01-20.29,16.73-30.38,10.57.97-2.81,1.95-5.62,2.96-8.55Z"/><path class="cls-1" d="m169.95,129.27h12.1c-2.73,14.31-5.45,28.56-8.17,42.83h-12.04c2.7-14.29,5.4-28.54,8.11-42.83Z"/><path class="cls-1" d="m177.58,123.96c-8.37.29-6.98-12.57.77-13.01,8.88-.5,7.68,12.97-.77,13.01Z"/></g></svg>