<?xml version="1.0" encoding="UTF-8"?><svg id="Capa_2" xmlns="http://www.w3.org/2000/svg" viewBox="0 0 311.65 111.99"><defs><style>.cls-1{fill:#fe3567;}.cls-1,.cls-2,.cls-3{stroke-width:0px;}.cls-2{fill:#fe3467;}.cls-3{fill:#fe3366;}</style></defs><g id="Capa_1-2"><path class="cls-3" d="m24.25,33.55c-3.33-6.35-6.58-12.46-9.75-18.6-2.27-4.39-1.31-9.33,2.36-12.49C18.88.71,21.27,0,23.93,0c26.06.02,52.12,0,78.18,0,6.29,0,12.58,0,18.86,0,8.05.01,12.65,7.62,8.87,14.74-16.24,30.56-32.5,61.1-48.77,91.64-1.93,3.63-4.97,5.63-9.12,5.6-4.09-.03-7.08-2.01-8.99-5.6-3.23-6.07-6.44-12.16-9.65-18.23-.28-.53-.57-1.06-.94-1.75-.52.95-.97,1.77-1.41,2.6-2.32,4.35-4.65,8.69-6.93,13.07-1.28,2.45-3.24,3.86-5.99,3.87-2.76,0-4.72-1.44-6-3.86C21.67,82.51,11.29,62.95.94,43.37c-2.59-4.9.4-9.81,5.94-9.82,5.72-.01,11.43,0,17.37,0Zm28.36.01c-6.89,0-13.79.17-20.67-.07-3.88-.13-6.33,2.98-4.13,6.94,4.9,8.8,9.52,17.76,14.25,26.65,2.11,3.97,4.23,7.94,6.33,11.91.84,1.59,2.12,2.54,3.92,2.54,1.8,0,3.1-.94,3.92-2.54.16-.31.33-.61.49-.92,6.84-12.82,13.68-25.63,20.53-38.45,1.79-3.36.15-6.07-3.7-6.07-6.98,0-13.96,0-20.94,0Z"/><path class="cls-2" d="m290.57,47.19c.84-1.35,1.6-2.55,2.34-3.76,1.93-3.13,3.87-6.26,5.77-9.4.55-.9,1.24-1.35,2.33-1.33,2.86.04,5.72,0,8.59.04.47,0,1.14.15,1.34.47.18.29-.06.96-.31,1.35-4.39,7-8.8,13.99-13.25,20.96-.51.81-.54,1.37-.02,2.19,4.62,7.21,9.21,14.46,13.77,21.71.3.47.35,1.09.52,1.64-.55.16-1.11.46-1.66.46-3.03.05-6.07,0-9.11.04-1.12.02-1.84-.41-2.44-1.36-2.62-4.23-5.31-8.42-7.97-12.63-.25-.39-.52-.77-.88-1.3-.33.52-.58.9-.81,1.29-2.4,4.11-4.83,8.21-7.18,12.34-.67,1.18-1.5,1.73-2.91,1.68-2.68-.1-5.38-.02-8.06-.03-1.67,0-1.96-.51-1.1-1.95,4.43-7.38,8.85-14.77,13.32-22.13.45-.74.44-1.23-.03-1.96-4.41-6.84-8.78-13.7-13.14-20.57-.32-.51-.43-1.16-.64-1.74.63-.16,1.26-.45,1.9-.46,2.9-.05,5.81.04,8.71-.05,1.26-.04,2.02.46,2.64,1.47,2.57,4.11,5.18,8.19,7.77,12.29.12.18.24.36.49.75Z"/><path class="cls-2" d="m147.01,32.81c1.3,0,2.6.06,3.9-.02,1.18-.07,1.71.44,2,1.53,2.16,8.14,4.37,16.28,6.55,24.41.89,3.3,1.74,6.6,2.68,9.88.14.49.64.87.97,1.3.34-.42.87-.8,1-1.28,3.08-11.25,6.11-22.51,9.15-33.78.55-2.05.55-2.06,2.74-2.06,2.43,0,4.86-.01,7.28,0,1.44.01,1.81.49,1.43,1.84-3.79,13.39-7.55,26.78-11.39,40.15-1.3,4.53-5.21,7.33-9.89,7.34-5.35,0-9.03-2.47-10.43-7.26-3.91-13.4-7.74-26.82-11.59-40.23-.39-1.36-.03-1.81,1.43-1.83,1.39-.02,2.77,0,4.16,0Z"/><path class="cls-1" d="m243.24,61.09c0,2.85-.07,5.53.02,8.21.06,1.86.92,2.78,2.77,3,1.5.18,3.02.15,4.54.16,3.38.02,6.76,0,10.15.01,1.42,0,1.78.37,1.8,1.75.02,1.82-.02,3.64.01,5.45.02.9-.38,1.43-1.23,1.54-6.59.82-13.21,1.58-19.8.26-5.86-1.17-9.15-5.1-9.42-11.11-.22-4.97-.17-9.95-.18-14.93,0-3.89-.03-7.8.18-11.68.34-6.29,4.1-10.37,10.39-11.22,6.27-.85,12.54-.41,18.79.45.9.12,1.25.63,1.24,1.51-.02,1.77,0,3.55,0,5.33,0,1.49-.42,1.91-1.95,1.92-4.12.01-8.24,0-12.36,0-.69,0-1.39.01-2.08.08-1.64.16-2.68.97-2.77,2.57-.15,2.54-.04,5.08-.04,7.79.47,0,.93,0,1.4,0,5.12,0,10.23,0,15.35,0,1.66,0,1.95.3,1.96,1.98,0,1.65,0,3.29,0,4.94,0,1.52-.41,1.93-1.92,1.93-5.2,0-10.41,0-15.61,0-.38,0-.76.03-1.22.05Z"/><path class="cls-3" d="m214.16,42.01v1.66c0,11.82,0,23.64,0,35.46,0,2.15-.26,2.41-2.36,2.41-2.17,0-4.34,0-6.5,0-2.04,0-2.36-.31-2.36-2.3,0-11.91,0-23.81,0-35.72,0-.47,0-.94,0-1.58-1.08,0-2.06,0-3.04,0-2.6,0-5.2-.02-7.8,0-1.21.01-1.73-.5-1.7-1.72.05-1.95.04-3.9,0-5.84-.02-1.13.43-1.67,1.61-1.67,11.01.01,22.03.01,33.04,0,1.15,0,1.67.5,1.66,1.64-.02,1.95.01,3.9,0,5.84-.01,1.42-.34,1.73-1.81,1.74-3.08.01-6.16,0-9.24,0-.46,0-.93.04-1.49.07Z"/></g></svg>