<?xml version="1.0" encoding="UTF-8"?><svg id="Capa_2" xmlns="http://www.w3.org/2000/svg" viewBox="0 0 274.09 162.91"><defs><style>.cls-1{fill:#2d3558;}.cls-1,.cls-2,.cls-3,.cls-4,.cls-5{stroke-width:0px;}.cls-2{fill:#3d4565;}.cls-3{fill:#32395b;}.cls-4{fill:#353d5e;}.cls-5{fill:#2f3759;}</style></defs><g id="Capa_1-2"><path class="cls-5" d="m159.04,106.44c-14.61-.1-26.4-4.45-36.43-13.29-1.51-1.33-2.66-1.47-4.52-.85-24.54,8.2-49.6-6.64-54.33-32.08-4.9-26.38,17.7-50.87,44.49-48.12,3.29.34,6.59,1.03,9.75,2.01,1.99.62,3.21.43,4.8-.94,19-16.4,45.91-17.58,66.09-3.01,17.56,12.67,25.56,34.73,20.36,56.08-5.01,20.55-22.62,36.53-43.61,39.53-2.59.37-5.22.54-6.6.67Zm-42.81-53.14c1.32,25.09,19.36,38.8,36.11,40.78,20.06,2.37,38.1-9.12,44.43-27.98,6.07-18.08-1.36-38.11-17.81-48.14-16.35-9.97-36.7-6.38-47.38,3.79,9.39,8.34,14.19,18.76,14.43,31.5h-11.73c-1.38-22.43-20.93-32.34-36.14-28.75-16.71,3.94-26.75,21.2-21.67,37.38,4.76,15.15,22.49,24.84,35.86,19.35-5.03-8.58-7.9-17.76-7.82-27.93h11.72Z"/><path class="cls-3" d="m214.45,123.71h6.41v13.76c4.1-3.8,8.51-5.05,13.01-3.49,2.7.93,5.44,2.86,7.22,5.1,4.45,5.6,3.66,14.49-1.17,19.52-4.96,5.16-11.38,5.54-18.58.94-.23.85-.45,1.64-.69,2.53h-6.2v-38.36Zm6.26,24.36c0,4.84,3.65,8.65,8.25,8.61,4.39-.04,8.15-3.88,8.23-8.42.08-4.76-3.56-8.61-8.19-8.67-4.71-.06-8.29,3.6-8.29,8.47Z"/><path class="cls-5" d="m113.98,162c-.08-.81-.16-1.65-.29-2.91-3.79,3.04-7.85,4.82-12.18,3.23-2.88-1.06-5.87-2.9-7.8-5.23-4.49-5.43-3.7-14.38,1.1-19.5,4.79-5.11,11.57-5.45,18.94-.7v-13.14h6.73v38.26h-6.5Zm.07-13.92c-.01-4.89-3.58-8.54-8.28-8.49-4.52.05-8.14,3.74-8.21,8.36-.06,4.63,3.76,8.68,8.25,8.73,4.58.06,8.25-3.78,8.24-8.61Z"/><path class="cls-5" d="m57.85,150.18h-20.95c.08,3.39,2.02,5.14,4.6,6.25,3.49,1.51,6.66.39,10.32-3.54,1.66.8,3.41,1.65,5.16,2.51-3.47,6.59-11.29,9.19-18.35,6.31-7.06-2.88-10.42-10.57-8.01-18.35,2.27-7.3,9.37-11.33,16.94-9.61,6.99,1.59,11.26,8.31,10.28,16.43Zm-6.7-5.02c-.81-4.04-3.32-6.17-7.05-6.16-3.59,0-6.35,2.35-7.09,6.16,3.84,0,7.64,0,11.44,0,.89,0,1.77,0,2.7,0Z"/><path class="cls-3" d="m267.79,152.82c1.83.89,3.52,1.7,5.19,2.5-1.81,5.65-10.06,9.3-17.87,6.55-6.92-2.43-10.65-10.17-8.66-17.89,1.91-7.42,9.07-11.8,16.86-10.32,6.95,1.32,11.45,8,10.71,16.41h-21.08c.23,3.56,2.12,5.47,4.8,6.39,4.11,1.43,7.54.12,10.05-3.65Zm-.55-7.8c-.96-4.05-3.47-6.11-7.22-6.03-3.51.08-6.15,2.34-6.91,6.03h14.12Z"/><path class="cls-3" d="m131.09,143.08c-1.81-.44-3.65-.9-5.77-1.42.29-.89.43-1.66.77-2.32,2.51-4.82,8.55-7.08,14.73-5.57,4.99,1.22,7.45,4.7,7.47,10.62.02,5.84,0,11.67,0,17.64h-6.14c-.11-.74-.23-1.48-.35-2.31-.35.11-.68.13-.87.3-3.05,2.73-6.61,3.33-10.45,2.37-3.67-.92-5.86-3.49-6.18-6.96-.36-3.89,1.29-7.06,4.94-8.47,2.41-.93,5.05-1.28,7.6-1.79,1.57-.32,3.17-.46,4.78-.69.32-2.72-.66-4.51-3.14-5.27-2.93-.9-4.94.19-7.39,3.88Zm10.56,6.54c-2.8.45-5.49.51-7.85,1.4-1.21.46-2.49,2.4-2.53,3.7-.02.82,2.12,2.29,3.42,2.46,4.25.54,7.04-2.44,6.96-7.56Z"/><path class="cls-4" d="m87.5,162.05h-6.85c0-5.13.01-10.15,0-15.17-.01-4.79-1.93-7.15-5.81-7.18-3.91-.03-6.42,2.67-6.48,7.14-.07,4.94-.02,9.89-.02,15.08h-6.77v-27.62h6.48c.15.62.34,1.42.44,1.85,2.2-.88,4.32-2.28,6.58-2.54,7.42-.87,11.88,2.77,12.35,10.25.37,6.01.08,12.07.08,18.19Z"/><path class="cls-4" d="m184.34,134.23h6.64c0,5.4-.09,10.73.03,16.04.11,4.94,4.28,7.75,8.21,5.64,2.44-1.31,3.01-3.65,3.02-6.19.01-5.05,0-10.11,0-15.39h6.5c0,6.42.47,12.89-.13,19.26-.59,6.2-5.71,9.42-12.89,9.19-6.27-.19-10.93-4.03-11.3-10.03-.37-6.04-.08-12.11-.08-18.51Z"/><path class="cls-1" d="m179.17,162.13h-6.32c0-2.49.01-4.97,0-7.44-.02-3.03.07-6.08-.14-9.1-.25-3.64-2.21-5.65-5.34-5.89-3.51-.27-5.96,1.48-6.78,5.1-.35,1.55-.35,3.2-.37,4.81-.05,4.04-.02,8.09-.02,12.34h-6.55v-27.67h6.23c.16.66.36,1.46.61,2.47.43-.29.76-.46,1.03-.69,6.56-5.47,16.27-2.66,17.45,5.64.95,6.68.19,13.59.19,20.43Z"/><path class="cls-1" d="m4.57,139.83H0v-5.61c1.41-.07,2.78-.13,4.47-.21v-8h6.81v7.95c1.64.1,3.02.19,4.61.29v5.4c-1.44.09-2.82.17-4.41.26v22.03h-6.92v-22.12Z"/><path class="cls-2" d="m19.68,134.23h6.47c.06.72.14,1.3.14,1.88,0,8.56,0,17.12,0,25.87h-6.62v-27.75Z"/><path class="cls-4" d="m22.78,130.1c-2.34-.04-4.31-1.99-4.08-4.25.24-2.38,1.49-3.89,4.09-3.89,2.44,0,4.28,1.74,4.27,4.06,0,2.35-1.86,4.12-4.28,4.08Z"/></g></svg>